<?xml version="1.0" encoding="UTF-8"?>
<svg version="1.1" xmlns="http://www.w3.org/2000/svg" width="450" height="450">
<path d="M0 0 C4.2767734 4.41515461 6.25701973 9.74664691 8.578125 15.33203125 C9.01744354 16.37065308 9.45676208 17.4092749 9.90939331 18.47937012 C11.36339441 21.92078608 12.80648238 25.36667518 14.25 28.8125 C15.27494224 31.24217594 16.30083766 33.67144998 17.32763672 36.1003418 C18.93038854 39.89168791 20.53274231 43.68319535 22.13168335 47.47615051 C27.24928162 59.61359743 32.43203776 71.72279283 37.62854004 83.82666016 C39.12664835 87.31633964 40.6235727 90.80652461 42.12011719 94.296875 C45.07927163 101.19826273 48.03952589 108.09917828 51 115 C54.38323249 122.886328 57.76606691 130.77282625 61.14788818 138.65975952 C62.44850161 141.6924204 63.74985622 144.72476239 65.05126953 147.75708008 C66.6250102 151.42403893 68.19327086 155.09326826 69.7578125 158.76416016 C71.27260759 162.31533086 72.81198109 165.85453567 74.3671875 169.38818359 C75.10945473 171.095994 75.85164566 172.80383756 76.59375 174.51171875 C76.9388562 175.28248245 77.2839624 176.05324615 77.63952637 176.84736633 C79.44914746 181.04440905 80.54648637 184.33641814 80 189 C74.51775924 197.91041198 63.54729099 205.87871821 54 210 C51 210.4375 51 210.4375 48 210 C45.0323167 206.78847612 43.11519091 203.51555385 41.328125 199.546875 C40.83699219 198.46986328 40.34585938 197.39285156 39.83984375 196.28320312 C39.31519531 195.11724609 38.79054688 193.95128906 38.25 192.75 C37.09343534 190.21129 35.9302425 187.67564954 34.765625 185.140625 C34.46241333 184.4796582 34.15920166 183.81869141 33.84680176 183.13769531 C30.34697085 175.53560734 26.67270567 168.01962998 23 160.5 C16.29220317 146.74785181 9.79962475 132.90962716 3.39697266 119.01269531 C2.0861134 116.18571118 0.7577461 113.36806311 -0.58203125 110.5546875 C-0.96423828 109.75160156 -1.34644531 108.94851562 -1.74023438 108.12109375 C-2.42970972 106.67683757 -3.12217496 105.2340029 -3.81835938 103.79296875 C-6 99.21871566 -6 99.21871566 -6 97 C-9.1220988 97.68476932 -9.1220988 97.68476932 -10.32763672 100.14770508 C-10.77381348 101.09540771 -11.21999023 102.04311035 -11.6796875 103.01953125 C-12.18927002 104.08953369 -12.69885254 105.15953613 -13.22387695 106.26196289 C-13.76874756 107.43364014 -14.31361816 108.60531738 -14.875 109.8125 C-15.45516348 111.04131692 -16.03615107 112.26974505 -16.61791992 113.49780273 C-18.42650233 117.3251253 -20.21445757 121.16188785 -22 125 C-22.5347998 126.14662109 -23.06959961 127.29324219 -23.62060547 128.47460938 C-26.27384434 134.16734433 -28.91522917 139.86546451 -31.55078125 145.56640625 C-35.32734087 153.729699 -39.16383132 161.86459619 -43 170 C-48.97755606 182.68041188 -54.90558895 195.38260124 -60.80078125 208.1015625 C-69.80144238 227.5195274 -78.87436345 246.90362024 -88.00976562 266.25854492 C-91.37694571 273.39681697 -94.72031945 280.5448784 -98.01953125 287.71484375 C-98.66459683 289.11268407 -99.30977695 290.51047155 -99.95507812 291.90820312 C-101.16791432 294.53522712 -102.3723377 297.16588789 -103.57226562 299.79882812 C-104.11173828 300.96736328 -104.65121094 302.13589844 -105.20703125 303.33984375 C-105.6760083 304.36456787 -106.14498535 305.38929199 -106.62817383 306.44506836 C-107.91020652 308.83276584 -108.83378681 310.39143581 -111 312 C-112.89428711 312.38818359 -112.89428711 312.38818359 -115.02734375 312.3984375 C-115.81407471 312.40447998 -116.60080566 312.41052246 -117.41137695 312.41674805 C-118.24499756 312.40297119 -119.07861816 312.38919434 -119.9375 312.375 C-120.78981201 312.36702393 -121.64212402 312.35904785 -122.52026367 312.35083008 C-132.21561983 312.13350298 -143.05593551 310.83787754 -150.2734375 303.77539062 C-152 301 -152 301 -151.5078125 298.10742188 C-150.82332031 296.5537793 -150.82332031 296.5537793 -150.125 294.96875 C-149.3825 293.24785156 -149.3825 293.24785156 -148.625 291.4921875 C-148.08875 290.33976562 -147.5525 289.18734375 -147 288 C-146.2884375 286.45699219 -146.2884375 286.45699219 -145.5625 284.8828125 C-144.07494239 281.73792169 -142.54299138 278.61804002 -141 275.5 C-136.1935597 265.66015244 -131.57599227 255.75564099 -127.125 245.75 C-126.56836472 244.50016038 -126.01172416 243.25032311 -125.45507812 242.00048828 C-124.41676204 239.66807119 -123.37866207 237.33555787 -122.34082031 235.00292969 C-118.23562405 225.80884483 -113.87770695 216.74050168 -109.49731445 207.67529297 C-103.11153491 194.45586876 -96.87917983 181.17637659 -90.75927734 167.83203125 C-87.22645538 160.13253143 -83.67431389 152.44190672 -80.125 144.75 C-79.73679077 143.90850403 -79.34858154 143.06700806 -78.9486084 142.20001221 C-73.46190908 130.30836733 -67.9463747 118.4308148 -62.39892578 106.56738281 C-57.82254058 96.77761124 -53.27601577 86.97414275 -48.73529053 77.16778564 C-41.02705299 60.52074999 -33.31515027 43.87559057 -25.52832031 27.26513672 C-24.02115474 24.04519545 -22.52215033 20.82153851 -21.0234375 17.59765625 C-20.12025414 15.66905419 -19.21663745 13.74065497 -18.3125 11.8125 C-17.91409912 10.95043945 -17.51569824 10.08837891 -17.10522461 9.20019531 C-16.7366333 8.41870117 -16.36804199 7.63720703 -15.98828125 6.83203125 C-15.67415283 6.15889893 -15.36002441 5.4857666 -15.03637695 4.79223633 C-11.6868014 -1.00028055 -6.24753233 -2.27837071 0 0 Z " fill="#0870F1" transform="translate(225,15)"/>
<path d="M0 0 C0.72901016 -0.00570007 1.45802032 -0.01140015 2.2091217 -0.01727295 C3.74787981 -0.02666919 5.28665754 -0.03323538 6.82543945 -0.03710938 C9.12294075 -0.04671934 11.41950842 -0.07775301 13.71679688 -0.109375 C33.63739678 -0.2524256 55.46207815 3.26025679 70.5390625 17.37109375 C80.00928242 27.50405466 82.92231884 38.25995659 82.52734375 51.92578125 C80.73092339 84.65477871 54.80720453 114.4928173 32.22265625 136.203125 C29.47986162 138.92735588 26.76071758 141.67305371 24.05859375 144.4375 C17.11080568 151.51652963 10.04003727 158.07827573 2.22265625 164.203125 C1.08149097 165.13185538 -0.05772325 166.06298656 -1.1953125 166.99609375 C-10.41284711 174.52740379 -19.9569026 181.48111181 -29.77734375 188.203125 C-30.49792969 188.698125 -31.21851563 189.193125 -31.9609375 189.703125 C-100.84344525 236.85264902 -195.68592231 283.62521389 -281.234375 268.70361328 C-295.25179363 265.94480873 -309.90244985 259.85142324 -318.77734375 248.203125 C-326.98879284 234.78620373 -329.01169198 220.29118328 -325.59716797 204.98413086 C-318.70883083 177.40757808 -300.67665768 153.00910923 -278.77734375 135.203125 C-277.80925781 134.40519531 -276.84117187 133.60726562 -275.84375 132.78515625 C-273.16229048 130.58191881 -270.4732746 128.38861306 -267.77734375 126.203125 C-266.78734375 126.698125 -266.78734375 126.698125 -265.77734375 127.203125 C-266.29735962 127.95650146 -266.29735962 127.95650146 -266.82788086 128.72509766 C-270.8338287 134.53567567 -274.81545665 140.3624168 -278.77734375 146.203125 C-279.22948242 146.86844238 -279.68162109 147.53375977 -280.14746094 148.21923828 C-292.68062547 166.77738191 -302.37609467 186.24962964 -300.77734375 209.203125 C-298.69848257 219.88546587 -293.6443697 227.81748346 -284.71484375 234.015625 C-257.37578758 250.29067087 -216.85736833 242.10076873 -187.90234375 235.078125 C-140.38354962 222.94319857 -94.40319212 201.58810317 -53.77734375 174.203125 C-53.09591309 173.74695801 -52.41448242 173.29079102 -51.71240234 172.82080078 C-35.70186462 162.080696 -20.43681948 150.39792773 -6.1875 137.390625 C-3.85153121 135.27045883 -1.474075 133.2061519 0.91015625 131.140625 C4.3745724 128.06451469 7.45086587 124.83801312 10.43359375 121.296875 C11.6530684 119.8697169 12.91058477 118.47441021 14.19921875 117.109375 C30.70749399 99.5805882 47.52830397 76.32375479 48.72265625 51.453125 C48.32455729 42.8105249 45.27431675 35.19918004 39.2421875 28.9765625 C18.93976198 11.14812693 -12.86228762 13.03551845 -38.08984375 13.140625 C-40.19856664 13.14565079 -42.3072907 13.15021178 -44.41601562 13.15429688 C-49.53648746 13.16521527 -54.65690251 13.18242026 -59.77734375 13.203125 C-56.0081219 10.69031043 -52.27794943 9.62589186 -47.96484375 8.328125 C-47.09061768 8.06491455 -46.2163916 7.8017041 -45.31567383 7.53051758 C-35.29402464 4.62243785 -25.08099271 2.79395923 -14.77734375 1.203125 C-13.13717285 0.93834351 -13.13717285 0.93834351 -11.46386719 0.66821289 C-7.62838852 0.18433297 -3.8589418 0.02414395 0 0 Z " fill="#0870F1" transform="translate(351.77734375,98.796875)"/>
<path d="M0 0 C4.6183649 4.06855956 7.36104717 8.43646887 10.03515625 13.94921875 C10.73784211 15.3835958 11.4411795 16.81765378 12.14501953 18.25146484 C12.53522278 19.05034119 12.92542603 19.84921753 13.32745361 20.67230225 C15.84989465 25.80486877 18.42889468 30.90925147 20.99609375 36.01953125 C22.15980842 38.34164495 23.32321466 40.66391323 24.48632812 42.98632812 C26.27307002 46.55369713 28.06037702 50.12076942 29.84985352 53.68676758 C42.32279263 78.5452547 42.32279263 78.5452547 47.71458435 90.24897766 C50.48996693 96.22252933 53.73030521 101.8298554 57.19140625 107.4296875 C58.68893837 110.44107362 59.20093121 112.01347658 58.625 115.3125 C57.04416003 117.36031288 56.15142041 118.21256827 53.58277893 118.70018005 C52.80208542 118.70558304 52.02139191 118.71098602 51.21704102 118.71655273 C50.32924454 118.72923691 49.44144806 118.74192108 48.52674866 118.75498962 C47.57046066 118.75205399 46.61417267 118.74911835 45.62890625 118.74609375 C44.64381577 118.7513356 43.65872528 118.75657745 42.64378357 118.76197815 C40.55997663 118.76840294 38.47613345 118.76705547 36.39233398 118.75854492 C33.2029561 118.75004121 30.01537243 118.77878046 26.82617188 118.81054688 C24.80208387 118.8121591 22.77799269 118.81158094 20.75390625 118.80859375 C19.79964249 118.81982773 18.84537872 118.83106171 17.86219788 118.84263611 C11.3228388 118.77378208 11.3228388 118.77378208 8.22021484 116.72290039 C6.20452017 113.67714687 4.52965578 110.54566967 2.97265625 107.25 C2.63616562 106.55463135 2.29967499 105.8592627 1.95298767 105.14282227 C0.85608736 102.86998305 -0.22841662 100.59147678 -1.3125 98.3125 C-2.07304573 96.72891587 -2.8341188 95.14558491 -3.59570312 93.5625 C-9.33301318 81.60942897 -14.94339928 69.59808621 -20.48828125 57.5546875 C-23.48028037 51.06090438 -26.5445589 44.60241573 -29.66210938 38.16796875 C-33.26106064 30.66258299 -36.13698551 23.59179064 -33.79296875 15.23828125 C-30.74616608 8.15689971 -24.48888257 2.35904054 -17.4375 -0.6875 C-11.44664368 -2.51704295 -5.64633179 -2.82316589 0 0 Z " fill="#0870F1" transform="translate(352.375,307.6875)"/>
<path d="M0 0 C2.4245084 0.5680106 4.79574257 1.19034527 7.1875 1.875 C15.67736642 4.27701099 23.58463277 5.21655652 32.375 5.5625 C33.39722656 5.60568359 34.41945312 5.64886719 35.47265625 5.69335938 C37.98165288 5.79887792 40.49073943 5.90099213 43 6 C42.38178412 10.03639605 41.0795224 13.19103566 39.234375 16.82421875 C38.67363281 17.93603516 38.11289063 19.04785156 37.53515625 20.19335938 C36.94605469 21.34642578 36.35695312 22.49949219 35.75 23.6875 C35.17636719 24.82123047 34.60273437 25.95496094 34.01171875 27.12304688 C32.87918958 29.36101739 31.74190662 31.59658932 30.59960938 33.82958984 C29.57566407 35.85903943 28.57461236 37.90030468 27.60351562 39.95556641 C27.18263672 40.8429248 26.76175781 41.7302832 26.328125 42.64453125 C25.97137695 43.41772705 25.61462891 44.19092285 25.24707031 44.98754883 C23.68288152 47.51174777 22.65398992 48.61245929 20 50 C17.0601983 50.28102536 14.33908183 50.3970411 11.40234375 50.36328125 C10.57166885 50.36377975 9.74099396 50.36427826 8.88514709 50.36479187 C7.13263552 50.36245539 5.38012034 50.35275199 3.62768555 50.33618164 C0.94354313 50.3125532 -1.73960787 50.31562821 -4.42382812 50.32226562 C-6.12761009 50.31668976 -7.83138788 50.30958046 -9.53515625 50.30078125 C-10.33832779 50.30169266 -11.14149933 50.30260406 -11.9690094 50.30354309 C-15.82689316 50.25435786 -17.71667903 50.18888065 -21 48 C-22.06160733 42.14505759 -19.21565506 37.55641814 -16.66015625 32.48046875 C-16.21860703 31.58129227 -15.7770578 30.68211578 -15.3221283 29.75569153 C-13.91324986 26.89404277 -12.48790176 24.04094806 -11.0625 21.1875 C-10.106383 19.24855881 -9.15129299 17.30911084 -8.19726562 15.36914062 C-6.45394748 11.83711474 -4.7096778 8.3056225 -2.94946289 4.78198242 C-2.41984703 3.71991829 -2.41984703 3.71991829 -1.87953186 2.63639832 C-1 1 -1 1 0 0 Z " fill="#086FF1" transform="translate(45,376)"/>
<path d="M0 0 C-1.65 0.66 -3.3 1.32 -5 2 C5.23 2.33 15.46 2.66 26 3 C26 3.33 26 3.66 26 4 C22.00231472 4.14586411 18.00451542 4.28806438 14.0065918 4.42724609 C11.9984704 4.49785614 9.99044398 4.57115168 7.98242188 4.64453125 C-1.01891524 4.95568858 -9.99387166 5.05818226 -19 5 C-16.01243632 3.00829088 -13.44575614 1.97092021 -10.0625 0.8125 C-9.02222656 0.44769531 -7.98195313 0.08289063 -6.91015625 -0.29296875 C-4.04543948 -0.98896034 -2.71018643 -1.02529944 0 0 Z " fill="#0959EF" transform="translate(311,107)"/>
<path d="M0 0 C0.33 0.66 0.66 1.32 1 2 C-0.07421875 4.7578125 -0.07421875 4.7578125 -1.6875 8.125 C-2.24050781 9.28644531 -2.79351562 10.44789062 -3.36328125 11.64453125 C-5.21646555 15.4437802 -7.08008483 19.23401256 -9 23 C-10.20007901 19.39976297 -9.76471259 18.88123214 -8.1640625 15.5859375 C-7.75929687 14.74289063 -7.35453125 13.89984375 -6.9375 13.03125 C-6.504375 12.1546875 -6.07125 11.278125 -5.625 10.375 C-5.19960937 9.49070312 -4.77421875 8.60640625 -4.3359375 7.6953125 C-1.1765253 1.1765253 -1.1765253 1.1765253 0 0 Z " fill="#085DF0" transform="translate(190,64)"/>
<path d="M0 0 C0.33 0.66 0.66 1.32 1 2 C0.0390625 4.2421875 0.0390625 4.2421875 -1.375 6.875 C-3.01118756 9.93713874 -4.22282029 12.62521962 -5 16 C-5.96887581 18.01526169 -6.9641321 20.01833966 -8 22 C-9.75442336 16.73672991 -6.25639702 11.83691737 -4 7 C-2.74379313 4.59960471 -1.41784694 2.31056538 0 0 Z " fill="#0A5DF0" transform="translate(38,275)"/>
<path d="M0 0 C0.66 0.33 1.32 0.66 2 1 C-0.31 4.3 -2.62 7.6 -5 11 C-5.33 10.01 -5.66 9.02 -6 8 C-6.66 7.67 -7.32 7.34 -8 7 C-5.36 4.69 -2.72 2.38 0 0 Z " fill="#0E5EEF" transform="translate(84,225)"/>
<path d="M0 0 C0.66 0.99 1.32 1.98 2 3 C1.34 3.928125 0.68 4.85625 0 5.8125 C-2.26574554 8.79636556 -2.26574554 8.79636556 -2 12 C-2.99 12.33 -3.98 12.66 -5 13 C-4.39254603 8.14036821 -2.27241033 4.2594482 0 0 Z " fill="#065EEF" transform="translate(111,233)"/>
</svg>
