<?xml version="1.0" encoding="UTF-8"?>
<svg version="1.1" xmlns="http://www.w3.org/2000/svg" width="1221" height="289">
<path d="M0 0 C0 0.66 0 1.32 0 2 C0.721875 2.2475 1.44375 2.495 2.1875 2.75 C5.27606582 4.12269592 7.51011418 5.72353296 10 8 C10 8.66 10 9.32 10 10 C10.66 10 11.32 10 12 10 C24.69854699 30.14072821 22.11851169 53.48877022 21.90405273 76.30908203 C21.731365 96.01723973 22.55417655 115.43341243 25 135 C13.78 135 2.56 135 -9 135 C-9.99 128.07 -9.99 128.07 -11 121 C-11.33 120.34 -11.66 119.68 -12 119 C-12.515625 120.03125 -13.03125 121.0625 -13.5625 122.125 C-18.66699856 130.8554527 -26.51903677 134.24979692 -36 137 C-51.36585592 140.3555707 -68.72227103 140.24076575 -82.78125 132.4609375 C-92.38341403 126.1269799 -98.79250626 118.43406577 -101.71875 107.25390625 C-104.40892935 93.92689933 -102.9899961 81.22855624 -95.4375 69.8125 C-84.4101676 56.24669752 -63.58154219 51.86719026 -47 50 C-35.69219059 48.92001297 -24.34915212 48.86084146 -13 49 C-13.2302825 46.47598256 -13.48354207 43.95774797 -13.75 41.4375 C-13.811875 40.73302734 -13.87375 40.02855469 -13.9375 39.30273438 C-14.52843235 33.95972102 -16.17244163 30.55742639 -19 26 C-19 25.34 -19 24.68 -19 24 C-29.32936476 19.94476791 -39.50932104 18.48603584 -49.97265625 22.81640625 C-54.38989796 25.05785162 -56.7073368 27.66941396 -59 32 C-59.66 34.31 -60.32 36.62 -61 39 C-72.55 39 -84.1 39 -96 39 C-91.25730994 13.70565302 -91.25730994 13.70565302 -80 5 C-56.89704015 -9.67717449 -24.98894244 -9.37085341 0 0 Z M-60 77 C-60 77.66 -60 78.32 -60 79 C-60.99 79.33 -61.98 79.66 -63 80 C-66.8180451 84.81826536 -68.75145228 89.72409165 -68.35546875 95.8671875 C-67.33901113 101.96593325 -64.7379667 106.12348179 -60 110 C-51.34347893 114.7525998 -42.35244369 114.70943395 -33 112 C-26.45458997 109.59556366 -20.21228065 104.63273407 -16.5703125 98.65234375 C-13.61155401 92.18410896 -12.84929091 86.27815412 -12.9375 79.1875 C-12.94201172 78.49462891 -12.94652344 77.80175781 -12.95117188 77.08789062 C-12.96286844 75.39188932 -12.98080076 73.69593297 -13 72 C-17.19511576 71.92478415 -21.38985477 71.87090619 -25.58544922 71.83520508 C-27.00706841 71.82029299 -28.42864307 71.79995591 -29.85009766 71.77368164 C-40.3267964 71.58514542 -50.54749612 71.91921019 -60 77 Z " fill="#0D59E3" transform="translate(1188,137)"/>
<path d="M0 0 C0.66257812 0.39703125 1.32515625 0.7940625 2.0078125 1.203125 C3.6875 2.25 3.6875 2.25 6 4 C6 4.66 6 5.32 6 6 C6.58136719 6.24234375 7.16273438 6.4846875 7.76171875 6.734375 C17.97850417 12.5114055 23.78242454 27.14319112 26.85644531 37.9855957 C32.55447037 59.43367025 31.13620308 83.52684609 20.21484375 103.21875 C10.2832567 118.85655704 -3.14616598 129.14730213 -21.18408203 133.53076172 C-42.14371402 138.20095601 -64.74298602 135.58494424 -83 124 C-94.33528553 115.57282454 -101.67070063 104.9939097 -107 92 C-107.3403125 91.26652344 -107.680625 90.53304687 -108.03125 89.77734375 C-115.40541264 68.63609521 -112.92868424 43.7326485 -103.4375 23.8125 C-95.87013706 8.8708375 -83.64558899 -1.17693973 -68 -7 C-45.40911116 -13.71319878 -20.26532112 -12.69141323 0 0 Z M-61 24 C-61 24.66 -61 25.32 -61 26 C-61.66 26 -62.32 26 -63 26 C-72.73562837 36.76482337 -74.34779579 52.14600715 -74.2109375 66.0234375 C-73.53175878 78.82721417 -69.72290076 91.33623792 -61 101 C-52.20460912 107.45648917 -43.4528697 108.24310239 -33 107 C-25.77395831 105.38897897 -20.3873127 101.96803566 -16 96 C-6.73487548 80.90046924 -4.51793924 63.7132748 -8.13183594 46.47314453 C-10.64605256 36.09515534 -14.92938876 27.07389045 -24 21 C-35.24313097 14.47898404 -51.00045266 15.62200088 -61 24 Z " fill="#0D59E3" transform="translate(581,142)"/>
<path d="M0 0 C1.29296875 1.33203125 1.29296875 1.33203125 1.29296875 3.33203125 C1.89625 3.6053125 2.49953125 3.87859375 3.12109375 4.16015625 C12.62839823 9.28999679 18.4821544 23.05768641 21.58178711 32.99072266 C28.55600978 56.81909804 26.50147144 81.61644298 14.55859375 103.51171875 C11.33918614 108.76818516 7.97337613 113.30470397 3.29296875 117.33203125 C2.63296875 117.33203125 1.97296875 117.33203125 1.29296875 117.33203125 C1.29296875 117.99203125 1.29296875 118.65203125 1.29296875 119.33203125 C-0.70255614 120.74540301 -2.67501913 122.01924746 -4.76953125 123.26953125 C-5.89488281 123.95917969 -7.02023437 124.64882813 -8.1796875 125.359375 C-25.42540747 135.31233151 -47.5308588 135.6998958 -66.5546875 131.23828125 C-70.8855962 129.99321208 -74.75513504 128.49131475 -78.70703125 126.33203125 C-79.76664063 125.75710938 -80.82625 125.1821875 -81.91796875 124.58984375 C-88.14818166 121.08988731 -88.14818166 121.08988731 -90.70703125 119.33203125 C-90.70703125 118.67203125 -90.70703125 118.01203125 -90.70703125 117.33203125 C-91.32578125 117.08453125 -91.94453125 116.83703125 -92.58203125 116.58203125 C-95.05771812 115.12574486 -95.65828127 113.95390619 -96.70703125 111.33203125 C-97.36703125 111.33203125 -98.02703125 111.33203125 -98.70703125 111.33203125 C-113.40218752 92.59498524 -117.01854566 69.01441403 -114.41845703 45.75 C-111.69553101 27.65076556 -103.22023657 12.05562072 -89.171875 0.14453125 C-65.43511955 -17.31007181 -23.67379685 -18.49972991 0 0 Z M-67.44140625 24.66796875 C-79.04257486 38.30934287 -78.82839349 55.40506829 -77.70703125 72.33203125 C-76.27492189 83.5089104 -71.27615063 93.11064507 -62.42578125 100.1171875 C-55.60468339 104.93846349 -47.96640882 106.18855929 -39.70703125 105.33203125 C-30.25319738 103.14543022 -23.25233411 98.28720871 -17.70703125 90.33203125 C-8.65624332 73.04026273 -9.25228647 55.42744839 -14.36328125 36.9609375 C-16.05181895 31.80486702 -18.96824374 27.24786441 -22.70703125 23.33203125 C-23.36703125 23.33203125 -24.02703125 23.33203125 -24.70703125 23.33203125 C-24.70703125 22.67203125 -24.70703125 22.01203125 -24.70703125 21.33203125 C-26.2655488 20.51191813 -27.82904841 19.70126912 -29.39453125 18.89453125 C-30.26464844 18.44207031 -31.13476562 17.98960937 -32.03125 17.5234375 C-44.49631489 11.97329912 -57.95093152 15.50578088 -67.44140625 24.66796875 Z " fill="#0E59E3" transform="translate(902.70703125,143.66796875)"/>
<path d="M0 0 C2.68958354 3.29738466 4.52353639 6.85692418 6.34375 10.67578125 C6.66515961 11.34089218 6.98656921 12.00600311 7.31771851 12.69126892 C8.38239374 14.89648205 9.44112087 17.1044987 10.5 19.3125 C11.25097922 20.87035138 12.00245367 22.42796412 12.75439453 23.98535156 C13.9393744 26.43974612 15.12403375 28.89428986 16.30715942 31.34957886 C20.39431811 39.82980752 24.52361894 48.28931124 28.65390015 56.74859619 C34.65208838 69.03579027 40.61893296 81.33582377 46.49365234 93.68261719 C48.94107998 98.81709427 51.43840447 103.92157847 54 109 C57.38476976 115.7152622 60.6758219 122.47412678 63.9375 129.25 C64.42283203 130.25160156 64.90816406 131.25320312 65.40820312 132.28515625 C65.86001953 133.22746094 66.31183594 134.16976562 66.77734375 135.140625 C67.18202881 135.98141602 67.58671387 136.82220703 68.00366211 137.68847656 C68.9103266 139.79195596 69.52417595 141.76468865 70 144 C60.18531491 152.99913819 49.39331596 160.18936915 38 167 C35.70345219 164.90502133 34.38949471 163.07486972 33.16918945 160.22338867 C32.8401059 159.46404022 32.51102234 158.70469177 32.17196655 157.92233276 C31.8226004 157.09589264 31.47323425 156.26945251 31.11328125 155.41796875 C30.73877838 154.54753937 30.36427551 153.67710999 29.97842407 152.78030396 C28.74956048 149.91893406 27.53109055 147.0532581 26.3125 144.1875 C25.46550878 142.21158239 24.61792825 140.2359173 23.76977539 138.26049805 C19.5501635 128.41543542 15.38228524 118.54933547 11.2578125 108.6640625 C10.88849106 107.78041519 10.51916962 106.89676788 10.13865662 105.98634338 C8.38318424 101.78481138 6.63523697 97.58046832 4.90161133 93.36987305 C4.27706141 91.86759015 3.65231706 90.36538806 3.02734375 88.86328125 C2.60831284 87.83365768 2.60831284 87.83365768 2.18081665 86.78323364 C0.87052487 83.22711342 0.87052487 83.22711342 -2 81 C-2.18332886 82.09441406 -2.18332886 82.09441406 -2.37036133 83.2109375 C-2.98845551 85.94886226 -3.84841244 88.10869133 -5.07421875 90.625 C-5.49147217 91.4897998 -5.90872559 92.35459961 -6.33862305 93.24560547 C-7.00631714 94.60903076 -7.00631714 94.60903076 -7.6875 96 C-8.60473436 97.89816328 -9.52140302 99.79660003 -10.4375 101.6953125 C-11.10265625 103.06864746 -11.10265625 103.06864746 -11.78125 104.46972656 C-13.76954086 108.59766054 -15.67673291 112.76072878 -17.5859375 116.92578125 C-18.86160508 119.69912485 -20.1536935 122.46426868 -21.45129395 125.22740173 C-24.40226411 131.51546742 -27.28008653 137.83182891 -30.1171875 144.171875 C-34.9255534 154.88585682 -39.85917158 165.53994815 -44.8125 176.1875 C-46.06667383 178.88478623 -47.3204767 181.58224289 -48.57341003 184.28010559 C-49.34178916 185.9344992 -50.11086453 187.58856972 -50.8808136 189.24223328 C-51.23185654 189.99785049 -51.58289948 190.75346771 -51.94458008 191.53198242 C-52.28549683 192.26299164 -52.62641357 192.99400085 -52.97766113 193.74716187 C-53.69418962 195.3261126 -54.38401955 196.91732443 -55.05358887 198.51675415 C-55.39531128 199.32889374 -55.73703369 200.14103333 -56.08911133 200.9777832 C-56.3896492 201.71317825 -56.69018707 202.4485733 -56.99983215 203.20625305 C-58 205 -58 205 -60.8046875 206.5 C-61.81789062 206.665 -62.83109375 206.83 -63.875 207 C-64.88304687 207.185625 -65.89109375 207.37125 -66.9296875 207.5625 C-68.44949219 207.7790625 -68.44949219 207.7790625 -70 208 C-71.3303125 208.27263672 -71.3303125 208.27263672 -72.6875 208.55078125 C-77.50110827 209.20357011 -82.27293008 209.18431204 -87.125 209.1875 C-88.60806641 209.20586914 -88.60806641 209.20586914 -90.12109375 209.22460938 C-91.07371094 209.22654297 -92.02632812 209.22847656 -93.0078125 209.23046875 C-93.87035645 209.23457764 -94.73290039 209.23868652 -95.62158203 209.24291992 C-98.17171233 208.98246215 -99.80126486 208.28381454 -102 207 C-101.32682292 205.59244792 -100.65364583 204.18489583 -99.98046875 202.77734375 C-99.5414624 201.85937012 -99.10245605 200.94139648 -98.65014648 199.99560547 C-97.6563291 197.91772923 -96.6623453 195.83993257 -95.66821289 193.76220703 C-93.25943934 188.72736101 -90.85208842 183.69187235 -88.453125 178.65234375 C-82.26610681 165.66675048 -75.98309504 152.72914417 -69.68045044 139.79940796 C-65.36720598 130.94959212 -61.0630467 122.09748579 -56.875 113.1875 C-53.72373483 106.48365406 -50.4657683 99.84121195 -47.12939453 93.22764587 C-45.17625185 89.35272258 -43.23237196 85.4732456 -41.29272461 81.59155273 C-40.94983619 80.90556472 -40.60694777 80.2195767 -40.25366879 79.51280117 C-37.04303772 73.08844215 -33.8365961 66.66199406 -30.63050842 60.23536682 C-27.85951656 54.68114404 -25.08651872 49.12792317 -22.31330967 43.57480717 C-20.2134456 39.36980809 -18.11435468 35.16442634 -16.0168457 30.95825195 C-13.96694058 26.8476212 -11.91511365 22.73795515 -9.86192131 18.62896538 C-9.08332672 17.06992768 -8.30543666 15.51053792 -7.52826118 13.95079231 C-6.45110093 11.78926806 -5.37148876 9.62898602 -4.29125977 7.46899414 C-3.97079681 6.82447296 -3.65033386 6.17995178 -3.32015991 5.51589966 C-1.11406004 1.11406004 -1.11406004 1.11406004 0 0 Z " fill="#0D59E3" transform="translate(174,7)"/>
<path d="M0 0 C0.8353125 0.44601563 1.670625 0.89203125 2.53125 1.3515625 C11.55570747 6.73615545 17.95786734 15.77976726 20.80311584 25.83952332 C22.58676853 33.26988272 23.51918933 40.29544258 23.68359375 47.92578125 C23.73343666 49.63028191 23.73343666 49.63028191 23.7842865 51.36921692 C24.18809906 67.13963915 24.11196376 82.91979642 24.06866455 98.69396973 C24.05636549 103.66887872 24.05199845 108.643801 24.04621124 113.61872101 C24.03668992 121.0791737 24.01746271 128.53954276 24 136 C11.79 136 -0.42 136 -13 136 C-13.04898438 130.15925781 -13.09796875 124.31851563 -13.1484375 118.30078125 C-13.18386645 114.57745773 -13.21985073 110.85415584 -13.2578125 107.13085938 C-13.31787652 101.2346524 -13.37600012 95.33847534 -13.421875 89.44213867 C-13.45903312 84.6828242 -13.50547127 79.92367877 -13.55806351 75.16451073 C-13.57644671 73.35828842 -13.59161241 71.5520301 -13.60334396 69.74575233 C-13.37420552 48.21767409 -13.37420552 48.21767409 -22.1875 29.1875 C-27.56332844 25.0063001 -33.825085 23.35604661 -40.61328125 23.6640625 C-49.46013212 24.9092821 -54.95675124 28.12417685 -60.63671875 34.9765625 C-62.18625257 36.86980311 -62.18625257 36.86980311 -62 39 C-62.66 39 -63.32 39 -64 39 C-64.144375 39.886875 -64.28875 40.77375 -64.4375 41.6875 C-64.75014232 43.52861587 -65.08792833 45.36763655 -65.52232361 47.18388367 C-66.15471413 50.9121091 -66.1773887 54.60006377 -66.20532227 58.37036133 C-66.21522186 59.20014496 -66.22512146 60.02992859 -66.23532104 60.88485718 C-66.26681279 63.61721989 -66.29164457 66.34959996 -66.31640625 69.08203125 C-66.33698643 70.98061058 -66.35798318 72.87918543 -66.37937927 74.77775574 C-66.43449007 79.76716482 -66.48394771 84.7566145 -66.53222656 89.74609375 C-66.58252197 94.84053141 -66.63816602 99.93491034 -66.69335938 105.02929688 C-66.80080646 115.01948104 -66.90228116 125.00971627 -67 135 C-79.35134354 135.82637424 -91.6220506 136.12350504 -104 136 C-104.13226504 122.86238146 -104.26275861 109.72474653 -104.39115143 96.58708954 C-104.45085805 90.48301855 -104.51111565 84.37895416 -104.57275391 78.27490234 C-104.83921917 51.84864599 -105.06557759 25.42776931 -105 -1 C-93.12 -1 -81.24 -1 -69 -1 C-68.505 4.94 -68.505 4.94 -68 11 C-66.68 10.67 -65.36 10.34 -64 10 C-63.67 9.01 -63.34 8.02 -63 7 C-46.19293351 -6.58718638 -19.28494582 -10.72016106 0 0 Z " fill="#0E59E3" transform="translate(740,137)"/>
<path d="M0 0 C18.81 0.495 18.81 0.495 38 1 C37.29838146 4.50809268 36.66826828 7.13448462 35.37109375 10.35546875 C34.90219727 11.53592773 34.90219727 11.53592773 34.42382812 12.74023438 C34.09833984 13.54783203 33.77285156 14.35542969 33.4375 15.1875 C32.78728909 16.80475649 32.1400044 18.4231935 31.49609375 20.04296875 C31.06574829 21.11067505 31.06574829 21.11067505 30.62670898 22.19995117 C29.89039874 23.99712821 29.89039874 23.99712821 30 26 C29.34 26 28.68 26 28 26 C27.89582764 26.82709473 27.79165527 27.65418945 27.68432617 28.50634766 C26.90121097 32.50434214 25.55597821 36.1318602 24.05078125 39.8984375 C23.75568161 40.65105865 23.46058197 41.40367981 23.15653992 42.17910767 C22.21400252 44.57993649 21.26359628 46.97755059 20.3125 49.375 C19.07734307 52.50699354 17.84521479 55.6401749 16.61328125 58.7734375 C16.30498886 59.55620056 15.99669647 60.33896362 15.67906189 61.14544678 C13.53281117 66.60648967 11.4491721 72.08801536 9.40112305 77.58651733 C5.61014206 87.75153449 1.6985333 97.8710499 -2.1875 108 C-3.4004796 111.16259235 -4.6132853 114.32525111 -5.82575989 117.48803711 C-6.5733986 119.43819107 -7.3213346 121.3882311 -8.06962585 123.33813477 C-8.41040665 124.22686279 -8.75118744 125.11559082 -9.10229492 126.03125 C-9.39730392 126.80017578 -9.69231293 127.56910156 -9.9962616 128.36132812 C-11.34341833 131.90279328 -12.66958004 135.45221344 -14 139 C-27.86 139 -41.72 139 -56 139 C-57.98 133.72 -59.96 128.44 -62 123 C-63.88820373 118.44180184 -63.88820373 118.44180184 -65.79785156 113.89257812 C-67.94540721 108.72518591 -69.9030484 103.48636124 -71.875 98.25 C-72.34131836 97.01685059 -72.80763672 95.78370117 -73.28808594 94.51318359 C-76.0480911 87.20967513 -78.78828548 79.89878378 -81.5234375 72.5859375 C-82.13883433 70.94124338 -82.75423147 69.29654937 -83.36962891 67.65185547 C-84.31052901 65.13717516 -85.25099443 62.62233655 -86.19012451 60.10699463 C-89.84169537 50.32831969 -93.53892292 40.57000711 -97.328125 30.84375 C-97.6798175 29.9389389 -98.03151001 29.03412781 -98.39385986 28.10189819 C-100.09192557 23.73419616 -101.79754937 19.36973903 -103.51660156 15.01025391 C-104.12597155 13.44706501 -104.73503806 11.88375776 -105.34375 10.3203125 C-105.62937805 9.60460083 -105.9150061 8.88888916 -106.20928955 8.15148926 C-106.86496761 6.45589817 -107.44087304 4.72983232 -108 3 C-107.67 2.34 -107.34 1.68 -107 1 C-87.2 1.495 -87.2 1.495 -67 2 C-50.87348906 51.59335622 -50.87348906 51.59335622 -44.81338501 70.38142395 C-43.49026009 74.48344959 -42.16192496 78.58375857 -40.83203125 82.68359375 C-40.20019776 84.64312503 -39.56866243 86.60275248 -38.9375 88.5625 C-38.66244629 89.40635254 -38.38739258 90.25020508 -38.10400391 91.11962891 C-36.42219835 96.36707718 -35.12641551 101.60506255 -34 107 C-32.14866932 103.63884624 -31.1199904 100.25418658 -30.08203125 96.56640625 C-29.71030086 95.26236569 -29.3385555 93.95832939 -28.96679688 92.65429688 C-28.39759787 90.63963514 -27.82994142 88.62454927 -27.26342773 86.60913086 C-24.66994303 77.40857301 -21.81590744 68.32951083 -18.75942993 59.27209473 C-15.22216345 48.75833863 -11.9595898 38.16113054 -8.6875 27.5625 C-7.75713125 24.55529874 -6.826117 21.54829894 -5.89448547 18.54148865 C-5.32265475 16.69528781 -4.75162941 14.84883725 -4.18156433 13.00209045 C-3.92401871 12.16939133 -3.66647308 11.3366922 -3.40112305 10.47875977 C-3.17796921 9.75600357 -2.95481537 9.03324738 -2.72489929 8.28858948 C-1.84669921 5.51601199 -0.91969676 2.75909028 0 0 Z " fill="#0D59E3" transform="translate(1039,134)"/>
<path d="M0 0 C13.53 0 27.06 0 41 0 C49 24 49 24 49.68992615 26.0799408 C51.42347447 31.29884292 53.19795495 36.50226028 54.99609375 41.69921875 C55.56074523 43.33782229 56.12519182 44.97649644 56.68945312 46.61523438 C57.56073355 49.14509681 58.43302564 51.67458341 59.30883789 54.20288086 C62.84064592 64.40355588 66.12088184 74.5938637 69 85 C69.4890111 86.65016155 69.9831489 88.29882005 70.484375 89.9453125 C70.69707031 90.64914063 70.90976562 91.35296875 71.12890625 92.078125 C71.555141 93.48282316 71.98502263 94.88641834 72.41796875 96.2890625 C73.44711497 99.71528844 74 102.38571756 74 106 C74.66 106 75.32 106 76 106 C76.24298828 104.7941626 76.48597656 103.5883252 76.73632812 102.34594727 C78.16622545 95.92929081 80.20829029 89.71890191 82.21875 83.46484375 C82.63791409 82.15093467 83.0567035 80.836906 83.47514343 79.52276611 C84.35779498 76.75310286 85.24276618 73.98419707 86.12973022 71.21591187 C87.5046046 66.92480654 88.87462865 62.63216417 90.2434082 58.33911133 C90.58141748 57.27899354 90.58141748 57.27899354 90.92625523 56.19745922 C91.37856757 54.77879459 91.83086012 53.36012366 92.28313255 51.9414463 C92.95444706 49.83622893 93.62626729 47.73117348 94.298172 45.62614441 C98.04393875 33.88679399 101.73359289 22.13051714 105.37109375 10.35717773 C105.7165625 9.24286377 106.06203125 8.1285498 106.41796875 6.98046875 C106.70438232 6.05129639 106.9907959 5.12212402 107.28588867 4.16479492 C108 2 108 2 109 0 C121.87 0 134.74 0 148 0 C145.3881811 7.18250198 142.74626169 14.33502623 139.98046875 21.45703125 C139.60482788 22.42666809 139.22918701 23.39630493 138.84216309 24.39532471 C137.62526121 27.53489658 136.40648108 30.67373489 135.1875 33.8125 C134.76981354 34.88925995 134.35212708 35.9660199 133.92178345 37.07540894 C127.64168852 53.26386182 121.3111356 69.43170711 114.8972168 85.56762695 C111.90195591 93.112281 108.9735425 100.67607136 106.13954163 108.28285217 C103.86615476 114.38085076 101.50831236 120.44414849 99.125 126.5 C97.76375 129.965 96.4025 133.43 95 137 C81.47 137 67.94 137 54 137 C52.35 133.04 50.7 129.08 49 125 C48.40316406 123.58332031 47.80632812 122.16664063 47.19140625 120.70703125 C44.36476699 113.97010867 41.67385857 107.22710846 39.3125 100.3125 C35.45418311 89.05851146 30.89260389 78.06803039 26.43687439 67.04098511 C23.98722797 60.97710235 21.55913021 54.9046754 19.13198853 48.83175659 C17.02183626 43.5527217 14.90771513 38.27530351 12.7895813 32.99946594 C11.37890421 29.48547731 9.96967152 25.97091024 8.56054688 22.45629883 C7.839776 20.65951526 7.11839994 18.86297436 6.39648438 17.06665039 C5.33565066 14.42657821 4.27697859 11.78564853 3.21875 9.14453125 C2.89386597 8.33748245 2.56898193 7.53043365 2.23425293 6.69892883 C0 1.11386951 0 1.11386951 0 0 Z " fill="#0D59E3" transform="translate(311,136)"/>
<path d="M0 0 C1.11375 0.2784375 2.2275 0.556875 3.375 0.84375 C11.54223592 3.21224842 19.04350512 7.08079081 23.5 14.625 C28.69552563 26.92266616 25.26375414 39.86545888 20.54296875 51.6328125 C16.08736663 61.35617712 9.93542559 69.90867015 3 78 C2.34773438 78.77472656 1.69546875 79.54945313 1.0234375 80.34765625 C-7.34807281 89.98900239 -16.92308482 99.13617014 -27 107 C-27.66 107 -28.32 107 -29 107 C-29 107.66 -29 108.32 -29 109 C-31.475 109.495 -31.475 109.495 -34 110 C-33.67 110.99 -33.34 111.98 -33 113 C-36.95831511 116.45083882 -41.02877729 119.42774464 -45.4296875 122.2890625 C-47.210958 123.47477144 -48.96497964 124.70205765 -50.6953125 125.9609375 C-59.26543134 132.15916966 -68.33877281 137.13874971 -77.66796875 142.10546875 C-81.17190707 143.97518672 -84.57543251 145.94278896 -87.953125 148.03125 C-93.29254912 151.26826603 -98.84041362 153.82840164 -104.5625 156.3125 C-106.18019287 157.01753662 -106.18019287 157.01753662 -107.83056641 157.73681641 C-146.1950542 174.21369383 -197.40873082 191.70039291 -238.6875 175.625 C-246.85983825 171.85143398 -251.32915914 167.28899549 -255 159 C-258.82720299 145.16318921 -253.78454642 130.54918772 -248 118 C-245.92533073 114.4337067 -243.53984718 111.2447624 -241 108 C-239.70628064 106.1681146 -238.4146838 104.33472875 -237.125 102.5 C-229.75698417 92.39938024 -220.90878492 83.71348492 -211.8125 75.1875 C-211.18408203 74.59001953 -210.55566406 73.99253906 -209.90820312 73.37695312 C-209.30556641 72.81298828 -208.70292969 72.24902344 -208.08203125 71.66796875 C-207.53780518 71.15516357 -206.9935791 70.6423584 -206.43286133 70.11401367 C-205 69 -205 69 -203 69 C-203 68.34 -203 67.68 -203 67 C-201.02 66.01 -199.04 65.02 -197 64 C-198.41761115 68.51058093 -200.66139023 70.72321633 -204 74 C-218.27655876 89.74588201 -236.3590096 112.13873747 -237.4375 134.3125 C-236.72006943 140.35941482 -235.47764089 144.98826397 -230.9375 149.25 C-216.35933297 160.47335872 -194.42179266 159.41078244 -177.0625 157.53515625 C-159.99504479 155.28652438 -142.98818781 150.30645186 -127 144 C-126.32001953 143.73525879 -125.64003906 143.47051758 -124.93945312 143.19775391 C-96.45294612 132.01383519 -70.24509806 116.33249323 -46.515625 97.04296875 C-44.83100489 95.67486887 -43.13280838 94.32332775 -41.421875 92.98828125 C-35.75174855 88.50357597 -30.55020211 83.73113727 -25.4375 78.625 C-24.82938477 78.01769043 -24.22126953 77.41038086 -23.59472656 76.78466797 C-21.09699162 74.25509221 -18.98345674 71.97518511 -17 69 C-16.34 69 -15.68 69 -15 69 C-14.74605469 68.26523438 -14.49210938 67.53046875 -14.23046875 66.7734375 C-12.92706022 63.83559605 -11.44536977 62.01347891 -9.3125 59.625 C-1.43753318 50.02872896 4.58516542 37.4085919 3.875 24.8125 C3.04311449 18.70570407 0.62122182 15.41856909 -4 11.375 C-16.54074766 3.04129803 -32.66485346 2.69716616 -47.1875 2.375 C-48.63088016 2.33671319 -50.07424009 2.29765575 -51.51757812 2.2578125 C-55.01153097 2.16300967 -58.50563989 2.07856801 -62 2 C-62 1.34 -62 0.68 -62 0 C-41.96395317 -4.80865124 -20.01020568 -5.09031548 0 0 Z " fill="#0C57E2" transform="translate(288,70)"/>
<path d="M0 0 C0.25990723 0.54487061 0.51981445 1.08974121 0.78759766 1.65112305 C6.20322665 12.99999966 11.63933865 24.33875088 17.11108398 35.66067505 C21.79442391 45.35133629 26.47288975 55.04429601 31.125 64.75 C31.56199219 65.65943359 31.99898438 66.56886719 32.44921875 67.50585938 C32.86042969 68.36501953 33.27164063 69.22417969 33.6953125 70.109375 C34.04609863 70.84124023 34.39688477 71.57310547 34.75830078 72.32714844 C36.55531586 76.19535942 38.26771973 80.10236938 40 84 C24.82 84 9.64 84 -6 84 C-9.96 75.585 -9.96 75.585 -14 67 C-16.44315444 62.11030402 -16.44315444 62.11030402 -18.89428711 57.22460938 C-21.95425935 51.14019678 -24.92231395 45.01206889 -27.875 38.875 C-28.59006714 37.39845947 -28.59006714 37.39845947 -29.31958008 35.89208984 C-31.50799431 31.32670657 -33.57226922 26.87397749 -35 22 C-28.62026257 17.37156304 -28.62026257 17.37156304 -25.5546875 15.53515625 C-23.05776317 14.0347109 -20.69013873 12.43203203 -18.3125 10.75 C-17.45140625 10.14542969 -16.5903125 9.54085937 -15.703125 8.91796875 C-13.87240365 7.61900316 -12.04966538 6.30872553 -10.234375 4.98828125 C-8.91179687 4.03501953 -8.91179687 4.03501953 -7.5625 3.0625 C-6.75941406 2.47597656 -5.95632813 1.88945312 -5.12890625 1.28515625 C-3 0 -3 0 0 0 Z " fill="#0D59E3" transform="translate(265,190)"/>
<path d="M0 0 C1.20269531 0.09087891 1.20269531 0.09087891 2.4296875 0.18359375 C22.19329149 1.6834991 22.19329149 1.6834991 42 2 C40.74118512 4.65218242 39.46885956 7.29623869 38.1875 9.9375 C37.83107422 10.69224609 37.47464844 11.44699219 37.10742188 12.22460938 C36.75615234 12.94326172 36.40488281 13.66191406 36.04296875 14.40234375 C35.72352295 15.06741943 35.40407715 15.73249512 35.07495117 16.41772461 C34 18 34 18 31 19 C29.63407817 19.08567246 28.26435142 19.11773647 26.89575195 19.11352539 C25.6648156 19.11341209 25.6648156 19.11341209 24.40901184 19.11329651 C23.0870002 19.10555458 23.0870002 19.10555458 21.73828125 19.09765625 C20.83248825 19.0962413 19.92669525 19.09482635 18.99345398 19.09336853 C16.09976909 19.08777001 13.20616151 19.07521781 10.3125 19.0625 C8.35091258 19.05748481 6.38932394 19.05292193 4.42773438 19.04882812 C-0.38154021 19.03780107 -5.190757 19.02053747 -10 19 C-4.77861617 8.46497722 -4.77861617 8.46497722 -2.1875 3.875 C-1.76855469 3.12992187 -1.34960938 2.38484375 -0.91796875 1.6171875 C-0.61503906 1.08351563 -0.31210937 0.54984375 0 0 Z " fill="#0C57E2" transform="translate(51,256)"/>
<path d="M0 0 C0 0.33 0 0.66 0 1 C-0.78246094 1.04898438 -1.56492187 1.09796875 -2.37109375 1.1484375 C-3.88896484 1.26058594 -3.88896484 1.26058594 -5.4375 1.375 C-6.44683594 1.44460937 -7.45617187 1.51421875 -8.49609375 1.5859375 C-9.32238281 1.72257812 -10.14867187 1.85921875 -11 2 C-11.33 2.66 -11.66 3.32 -12 4 C-10.68 4.33 -9.36 4.66 -8 5 C-8 5.66 -8 6.32 -8 7 C-8.82064941 6.86287598 -9.64129883 6.72575195 -10.48681641 6.58447266 C-19.81769465 5.12615574 -28.94874812 4.58802264 -38.375 4.375 C-39.80470747 4.33667527 -41.23439544 4.2976161 -42.6640625 4.2578125 C-46.10919305 4.1634526 -49.55447593 4.07887576 -53 4 C-53 3.34 -53 2.68 -53 2 C-35.90421765 -2.10298776 -17.38102343 -2.66408765 0 0 Z " fill="#0431D6" transform="translate(279,68)"/>
<path d="M0 0 C0 3.62086572 -0.60298187 3.99961677 -3 6.5625 C-5.15257603 8.88832159 -7.11847818 11.1655868 -8.96484375 13.74609375 C-13.95327174 20.71013679 -13.95327174 20.71013679 -17.28515625 21.6328125 C-19.5 21.625 -19.5 21.625 -23 21 C-18.21823187 15.08570784 -12.96969239 9.73495385 -7 5 C-6.34 5 -5.68 5 -5 5 C-5 4.34 -5 3.68 -5 3 C-2.5 1.375 -2.5 1.375 0 0 Z " fill="#0843D7" transform="translate(90,134)"/>
<path d="M0 0 C2.8125 0.5 2.8125 0.5 4.8125 2.5 C1.8425 6.79 -1.1275 11.08 -4.1875 15.5 C-4.5175 14.84 -4.8475 14.18 -5.1875 13.5 C-6.1775 13.17 -7.1675 12.84 -8.1875 12.5 C-8.1875 11.51 -8.1875 10.52 -8.1875 9.5 C-9.1775 9.995 -9.1775 9.995 -10.1875 10.5 C-8.11348153 5.59777453 -5.51248497 0.86470352 0 0 Z " fill="#0F53DD" transform="translate(69.1875,153.5)"/>
<path d="M0 0 C0.35729936 1.32711192 0.68325425 2.66262906 1 4 C1.37125 5.5159375 1.37125 5.5159375 1.75 7.0625 C2 10 2 10 0.5625 11.875 C0.046875 12.24625 -0.46875 12.6175 -1 13 C-1 12.34 -1 11.68 -1 11 C-1.99 10.67 -2.98 10.34 -4 10 C-4 9.01 -4 8.02 -4 7 C-4.99 7.495 -4.99 7.495 -6 8 C-4.55746343 4.63408134 -2.66735273 2.48952921 0 0 Z " fill="#094FDD" transform="translate(65,156)"/>
<path d="M0 0 C0 0.33 0 0.66 0 1 C-2.64 1.33 -5.28 1.66 -8 2 C-8 2.33 -8 2.66 -8 3 C-13.94 3 -19.88 3 -26 3 C-26 2.34 -26 1.68 -26 1 C-17.33003296 -0.16711095 -8.72630608 -0.09744014 0 0 Z " fill="#0F69E7" transform="translate(266,68)"/>
<path d="M0 0 C9.24 0 18.48 0 28 0 C27.34 1.65 26.68 3.3 26 5 C25.67 4.01 25.34 3.02 25 2 C23.865625 2.01160156 22.73125 2.02320313 21.5625 2.03515625 C20.04166833 2.0445441 18.52083486 2.05364322 17 2.0625 C15.88431641 2.07506836 15.88431641 2.07506836 14.74609375 2.08789062 C9.73851156 2.10966272 4.95720968 1.71541549 0 1 C0 0.67 0 0.34 0 0 Z " fill="#0331D3" transform="translate(65,258)"/>
<path d="M0 0 C0.66 0.33 1.32 0.66 2 1 C1.25 2.9375 1.25 2.9375 0 5 C-2.125 5.75 -2.125 5.75 -4 6 C-4.04125 6.556875 -4.0825 7.11375 -4.125 7.6875 C-5.46930374 11.24030274 -8.00974189 12.70958953 -11 15 C-10.38554825 11.69084419 -9.21831218 9.60583297 -7.1875 6.9375 C-6.68605469 6.26589844 -6.18460938 5.59429687 -5.66796875 4.90234375 C-3.94146972 2.93324532 -2.1439676 1.49287115 0 0 Z " fill="#0A40D6" transform="translate(1100,200)"/>
<path d="M0 0 C0.66 0.33 1.32 0.66 2 1 C1 3 0 5 -1 7 C-1.2475 7.763125 -1.495 8.52625 -1.75 9.3125 C-3 11 -3 11 -6.625 11.75 C-7.73875 11.8325 -8.8525 11.915 -10 12 C-9.61328125 11.55269531 -9.2265625 11.10539063 -8.828125 10.64453125 C-5.81609925 7.1478974 -2.85678969 3.62592537 0 0 Z " fill="#0943D8" transform="translate(271,139)"/>
<path d="M0 0 C0.66 0.33 1.32 0.66 2 1 C1.55530671 6.03985731 -0.71343362 8.37634988 -4 12 C-5.32 11.67 -6.64 11.34 -8 11 C-7.38511719 10.31164062 -7.38511719 10.31164062 -6.7578125 9.609375 C-6.21898437 8.99578125 -5.68015625 8.3821875 -5.125 7.75 C-4.59132813 7.14671875 -4.05765625 6.5434375 -3.5078125 5.921875 C-2.0202513 4.02581254 -0.99677564 2.18709995 0 0 Z " fill="#0846DC" transform="translate(1172,232)"/>
<path d="M0 0 C0.66 0.33 1.32 0.66 2 1 C0 4 0 4 -2.5 5.4375 C-5.10363299 6.75021232 -5.10363299 6.75021232 -5.9375 9 C-7.5297589 11.99719323 -9.97521624 12.68487663 -13 14 C-11.54238919 10.63163511 -9.6759774 8.43494248 -7.0625 5.875 C-6.37285156 5.19179687 -5.68320312 4.50859375 -4.97265625 3.8046875 C-3 2 -3 2 0 0 Z " fill="#0838D4" transform="translate(498,142)"/>
<path d="M0 0 C0 0.33 0 0.66 0 1 C-3.3 1 -6.6 1 -10 1 C-10 1.66 -10 2.32 -10 3 C-13.63 3 -17.26 3 -21 3 C-21 2.34 -21 1.68 -21 1 C-18.81457668 0.63323686 -16.62651594 0.282173 -14.4375 -0.0625 C-13.21933594 -0.25972656 -12.00117188 -0.45695312 -10.74609375 -0.66015625 C-6.94539951 -1.00495333 -3.7409767 -0.68849378 0 0 Z " fill="#0846DC" transform="translate(250,68)"/>
<path d="M0 0 C0.33 0 0.66 0 1 0 C1.18451025 15.74487472 1.18451025 15.74487472 0 23 C-0.33 23 -0.66 23 -1 23 C-1.33 18.38 -1.66 13.76 -2 9 C-1.67 9 -1.34 9 -1 9 C-0.67 6.03 -0.34 3.06 0 0 Z " fill="#0530D0" transform="translate(610,196)"/>
<path d="M0 0 C0 3.58912412 -0.66436554 4.10857029 -3 6.6875 C-3.556875 7.31011719 -4.11375 7.93273437 -4.6875 8.57421875 C-5.120625 9.04472656 -5.55375 9.51523438 -6 10 C-7.32 9.34 -8.64 8.68 -10 8 C-8.625 6.5 -8.625 6.5 -7 5 C-6.34 5 -5.68 5 -5 5 C-5 4.34 -5 3.68 -5 3 C-2.5 1.375 -2.5 1.375 0 0 Z " fill="#0B2CC8" transform="translate(90,134)"/>
<path d="M0 0 C2.15377564 2.62198774 3.40072174 4.64404172 4 8 C3.4225 7.79375 2.845 7.5875 2.25 7.375 C-0.51967567 6.91338739 -1.64561267 7.57055055 -4 9 C-2.94124926 5.59687262 -1.99097846 2.98646769 0 0 Z " fill="#0638D3" transform="translate(174,7)"/>
<path d="M0 0 C2.16526269 2.16526269 2.75544982 3.58051386 3.75 6.4375 C4.03359375 7.21996094 4.3171875 8.00242188 4.609375 8.80859375 C5 11 5 11 3 14 C2.29866401 12.42274653 1.614417 10.83788667 0.9375 9.25 C0.55464844 8.36828125 0.17179687 7.4865625 -0.22265625 6.578125 C-1.04600008 3.84743691 -0.9773992 2.63098653 0 0 Z " fill="#0741DA" transform="translate(316,143)"/>
<path d="M0 0 C1.35304209 4.05912626 0.15216503 5.77149591 -1.4375 9.6875 C-2.14712891 11.45673828 -2.14712891 11.45673828 -2.87109375 13.26171875 C-3.24363281 14.16535156 -3.61617188 15.06898438 -4 16 C-4.97608217 13.07175348 -5.08226668 11.04386724 -5 8 C-4.01 7.67 -3.02 7.34 -2 7 C-2 5.35 -2 3.7 -2 2 C-1.34 2 -0.68 2 0 2 C0 1.34 0 0.68 0 0 Z " fill="#0737D5" transform="translate(423,224)"/>
<path d="M0 0 C0.33 0 0.66 0 1 0 C0.26086957 8.86956522 0.26086957 8.86956522 -3 12 C-3.66 12 -4.32 12 -5 12 C-3.68938409 7.76570244 -2.05643741 3.92592596 0 0 Z " fill="#0840D9" transform="translate(98,160)"/>
<path d="M0 0 C2.1519437 3.22791555 2.20086443 4.28400809 2 8 C2.99 8 3.98 8 5 8 C4.67 9.98 4.34 11.96 4 14 C-1.2688172 6.09677419 -1.2688172 6.09677419 -0.6875 1.5625 C-0.460625 1.046875 -0.23375 0.53125 0 0 Z " fill="#083ED8" transform="translate(343,211)"/>
<path d="M0 0 C0.66 0.33 1.32 0.66 2 1 C-1.49087093 5.0042343 -3.64951939 6.62671065 -9 7 C-6.25604436 4.05278838 -3.61662784 1.80831392 0 0 Z " fill="#093FD7" transform="translate(220,183)"/>
<path d="M0 0 C2 1 2 1 3 2 C2.1875 3.9375 2.1875 3.9375 1 6 C0.01 6.33 -0.98 6.66 -2 7 C-2.99 6.34 -3.98 5.68 -5 5 C-3.35 3.35 -1.7 1.7 0 0 Z " fill="#0944D7" transform="translate(812,145)"/>
<path d="M0 0 C0.66 1.32 1.32 2.64 2 4 C1.01 4.495 1.01 4.495 0 5 C-0.309375 5.99 -0.61875 6.98 -0.9375 8 C-1.288125 8.99 -1.63875 9.98 -2 11 C-2.99 11.33 -3.98 11.66 -5 12 C-3.68938409 7.76570244 -2.05643741 3.92592596 0 0 Z " fill="#073CD4" transform="translate(166,22)"/>
<path d="M0 0 C1.23593891 3.70781672 0.5678132 4.67510253 -0.9375 8.1875 C-1.31777344 9.08855469 -1.69804687 9.98960937 -2.08984375 10.91796875 C-2.54037109 11.94857422 -2.54037109 11.94857422 -3 13 C-4.0546875 11.171875 -4.0546875 11.171875 -5 9 C-4.125 6.25 -4.125 6.25 -3 4 C-2.34 4 -1.68 4 -1 4 C-0.67 2.68 -0.34 1.36 0 0 Z " fill="#0737D6" transform="translate(439,183)"/>
<path d="M0 0 C0.66666667 2.66666667 1.33333333 5.33333333 2 8 C1.236875 7.62875 0.47375 7.2575 -0.3125 6.875 C-1.6428125 6.441875 -1.6428125 6.441875 -3 6 C-3.99 6.66 -4.98 7.32 -6 8 C-4.55746343 4.63408134 -2.66735273 2.48952921 0 0 Z " fill="#073AD2" transform="translate(65,156)"/>
<path d="M0 0 C0.66 1.32 1.32 2.64 2 4 C2.66 4 3.32 4 4 4 C4 3.34 4 2.68 4 2 C4.66 2.33 5.32 2.66 6 3 C5.67 5.97 5.34 8.94 5 12 C2.32522069 9.32522069 1.3535886 6.507025 0 3 C0 2.01 0 1.02 0 0 Z " fill="#0637D5" transform="translate(186,115)"/>
<path d="M0 0 C0.66 0.33 1.32 0.66 2 1 C1.25 6.75 1.25 6.75 -1 9 C-1.66 7.02 -2.32 5.04 -3 3 C-2.01 2.01 -1.02 1.02 0 0 Z " fill="#094ADC" transform="translate(117,201)"/>
<path d="M0 0 C4.43090471 1.20842856 6.98112756 2.51668565 10 6 C8.68 6 7.36 6 6 6 C6 5.34 6 4.68 6 4 C4.35 3.67 2.7 3.34 1 3 C0.67 2.01 0.34 1.02 0 0 Z " fill="#073DD8" transform="translate(572,138)"/>
<path d="M0 0 C0.33 0 0.66 0 1 0 C1.19622241 4.21878192 0.80230168 7.17010894 -1 11 C-3 8 -3 8 -3 5 C-2.34 5 -1.68 5 -1 5 C-0.67 3.35 -0.34 1.7 0 0 Z " fill="#0847DC" transform="translate(409,257)"/>
<path d="M0 0 C0.33 0.99 0.66 1.98 1 3 C0.01 4.485 0.01 4.485 -1 6 C-2.32 6 -3.64 6 -5 6 C-4.67 4.35 -4.34 2.7 -4 1 C-2.68 0.67 -1.36 0.34 0 0 Z " fill="#0A4CDD" transform="translate(606,228)"/>
<path d="M0 0 C3 0 3 0 6 1 C6 1.66 6 2.32 6 3 C3.64561267 4.42944945 2.51967567 5.08661261 -0.25 4.625 C-0.8275 4.41875 -1.405 4.2125 -2 4 C-1.34 2.68 -0.68 1.36 0 0 Z " fill="#0944D7" transform="translate(74,210)"/>
<path d="M0 0 C0.33 0.66 0.66 1.32 1 2 C-1.16798732 7.4770206 -1.16798732 7.4770206 -4.1875 9.375 C-4.785625 9.58125 -5.38375 9.7875 -6 10 C-4.6302836 6.00499382 -2.74277578 3.19990508 0 0 Z " fill="#0839D8" transform="translate(803,155)"/>
<path d="M0 0 C0.95465783 2.16967689 1.14401212 3.56328793 0.3984375 5.82421875 C-0.35870385 7.5684743 -1.17609198 9.28627131 -2 11 C-2.66 11 -3.32 11 -4 11 C-3.52269162 9.5410574 -3.04308958 8.08286504 -2.5625 6.625 C-2.29566406 5.81289062 -2.02882813 5.00078125 -1.75390625 4.1640625 C-1 2 -1 2 0 0 Z " fill="#073AD6" transform="translate(103,149)"/>
<path d="M0 0 C0.66 0.33 1.32 0.66 2 1 C-2.455 3.97 -2.455 3.97 -7 7 C-7 6.01 -7 5.02 -7 4 C-1.7265625 0.77734375 -1.7265625 0.77734375 0 0 Z " fill="#073FD6" transform="translate(251,198)"/>
<path d="M0 0 C-2.91985315 2.48728231 -5.14219907 3.71066493 -9 4 C-11.3125 3.0625 -11.3125 3.0625 -13 2 C-4.57142857 -0.28571429 -4.57142857 -0.28571429 0 0 Z " fill="#0530D4" transform="translate(847,132)"/>
<path d="M0 0 C1.65 0.33 3.3 0.66 5 1 C5 2.32 5 3.64 5 5 C0.25 4.25 0.25 4.25 -2 2 C-1.34 2 -0.68 2 0 2 C0 1.34 0 0.68 0 0 Z " fill="#0743D8" transform="translate(48,241)"/>
<path d="M0 0 C3.0916909 2.52956528 3.90931332 5.22454612 5 9 C4.01 8.67 3.02 8.34 2 8 C0.5522078 5.10441559 0 3.25811062 0 0 Z " fill="#0639D5" transform="translate(916,161)"/>
<path d="M0 0 C0.99 0.33 1.98 0.66 3 1 C3 1.66 3 2.32 3 3 C3.66 3.33 4.32 3.66 5 4 C4.67 5.65 4.34 7.3 4 9 C1.3144406 6.3144406 0.93950026 3.62378672 0 0 Z " fill="#0741DA" transform="translate(194,134)"/>
<path d="M0 0 C1.46726798 3.81489674 0.43336419 6.29011622 -1 10 C-1.99 10 -2.98 10 -4 10 C-2.8905928 6.51329166 -1.73662334 3.22515763 0 0 Z " fill="#0535D4" transform="translate(288,114)"/>
<path d="M0 0 C0.99 0.33 1.98 0.66 3 1 C1.73058503 4.91402949 0.48832306 6.79072873 -3 9 C-2.01 6.03 -1.02 3.06 0 0 Z " fill="#0A39D2" transform="translate(911,249)"/>
<path d="M0 0 C0 3.12900213 -0.42451317 4.37418862 -2 7 C-2.99 7.495 -2.99 7.495 -4 8 C-4.33 7.01 -4.66 6.02 -5 5 C-3.35 3.35 -1.7 1.7 0 0 Z " fill="#083FD8" transform="translate(260,151)"/>
<path d="M0 0 C1.24546405 2.49092811 0.7767578 3.41080733 0 6 C-0.66 6 -1.32 6 -2 6 C-2.33 6.99 -2.66 7.98 -3 9 C-4 7 -4 7 -3.1875 3.9375 C-2 1 -2 1 0 0 Z " fill="#0941DC" transform="translate(293,105)"/>
<path d="M0 0 C0.99 0 1.98 0 3 0 C3.33 2.64 3.66 5.28 4 8 C1.84622436 5.37801226 0.59927826 3.35595828 0 0 Z " fill="#083ED7" transform="translate(477,239)"/>
<path d="M0 0 C0.66 0.33 1.32 0.66 2 1 C-0.17424117 3.50037734 -1.73045798 4.43628586 -5 5 C-5 4.01 -5 3.02 -5 2 C-2.625 0.9375 -2.625 0.9375 0 0 Z " fill="#0A46DB" transform="translate(201,214)"/>
<path d="M0 0 C0.99 0.66 1.98 1.32 3 2 C1.71034824 3.37562854 0.37310707 4.70766393 -1 6 C-1.66 6 -2.32 6 -3 6 C-1.125 1.125 -1.125 1.125 0 0 Z " fill="#0943DB" transform="translate(1102,148)"/>
</svg>
